<svg width="800" height="800" viewBox="0 0 800 800" fill="none" xmlns="http://www.w3.org/2000/svg">
<g clip-path="url(#clip0_18_73)">
<path fill-rule="evenodd" clip-rule="evenodd" d="M166.163 66.6665C120.515 66.6665 86.739 106.619 88.251 149.948C89.7017 191.575 87.817 245.487 74.244 289.453C60.6307 333.546 37.6067 361.48 0 365.066V405.553C37.6067 409.14 60.6307 437.073 74.244 481.17C87.817 525.133 89.7017 579.046 88.251 620.673C86.739 663.996 120.515 703.953 166.169 703.953H633.897C679.547 703.953 713.317 664.003 711.803 620.673C710.353 579.046 712.237 525.133 725.81 481.17C739.43 437.073 762.393 409.14 800 405.553V365.066C762.393 361.48 739.43 333.546 725.81 289.453C712.237 245.493 710.353 191.575 711.803 149.948C713.317 106.626 679.547 66.6665 633.897 66.6665H166.163ZM542.373 458.956C542.373 518.62 497.87 554.803 424.02 554.803H298.305C294.709 554.803 291.26 553.373 288.717 550.83C286.174 548.286 284.746 544.84 284.746 541.243V229.378C284.746 225.782 286.174 222.333 288.717 219.79C291.26 217.247 294.709 215.819 298.305 215.819H423.303C484.88 215.819 525.293 249.175 525.293 300.388C525.293 336.333 498.11 368.516 463.47 374.15V376.03C510.623 381.203 542.373 413.853 542.373 458.956ZM410.313 258.802H338.63V360.05H399.003C445.673 360.05 471.41 341.257 471.41 307.663C471.41 276.185 449.28 258.802 410.313 258.802ZM338.63 400.226V511.806H412.95C461.54 511.806 487.28 492.306 487.28 455.663C487.28 419.013 460.82 400.22 409.823 400.22L338.63 400.226Z" fill="white"/>
</g>
<defs>
<clipPath id="clip0_18_73">
<rect width="800" height="800" fill="white"/>
</clipPath>
</defs>
</svg>
