<svg width="800" height="800" viewBox="0 0 800 800" fill="none" xmlns="http://www.w3.org/2000/svg">
<path d="M400.333 41H280.667C214.577 41 161 94.5768 161 160.667C161 226.757 214.577 280.333 280.667 280.333M400.333 41V280.333M400.333 41H520C586.092 41 639.667 94.5768 639.667 160.667C639.667 226.757 586.092 280.333 520 280.333M280.667 280.333H400.333M280.667 280.333C214.577 280.333 161 333.908 161 400C161 466.092 214.577 519.667 280.667 519.667M400.333 280.333H520M400.333 280.333V519.667M520 280.333C586.092 280.333 639.667 333.908 639.667 400C639.667 466.092 586.092 519.667 520 519.667C453.908 519.667 400.333 466.092 400.333 400C400.333 333.908 453.908 280.333 520 280.333ZM400.333 519.667H280.667M400.333 519.667V639.333C400.333 705.425 346.759 759 280.667 759C214.577 759 161 705.425 161 639.333C161 573.241 214.577 519.667 280.667 519.667" stroke="white" stroke-width="79.7778" stroke-linecap="round" stroke-linejoin="round"/>
</svg>
