<svg width="800" height="800" viewBox="0 0 800 800" fill="none" xmlns="http://www.w3.org/2000/svg">
<path d="M266.666 166.667C256.402 166.667 246.71 171.396 240.393 179.486C234.076 187.577 231.839 198.126 234.328 208.084L267.662 341.417C271.371 356.257 284.704 366.666 300 366.666H460C463.683 366.666 466.667 369.65 466.667 373.333V450.096C466.667 451.866 465.963 453.563 464.713 454.813L404.713 514.813C402.11 517.416 397.89 517.416 395.287 514.813L323.57 443.096C310.553 430.08 289.447 430.08 276.43 443.096C263.412 456.113 263.412 477.22 276.43 490.236L376.43 590.236C389.447 603.253 410.553 603.253 423.57 590.236L523.57 490.236C529.82 483.986 533.333 475.506 533.333 466.666V333.333C533.333 314.924 518.41 300 500 300H331.231C328.172 300 325.505 297.918 324.763 294.95L311.43 241.617C310.378 237.409 313.56 233.333 317.898 233.333H533.333C551.743 233.333 566.667 218.409 566.667 200C566.667 181.591 551.743 166.667 533.333 166.667H266.666Z" fill="white"/>
<path fill-rule="evenodd" clip-rule="evenodd" d="M143.534 33.3335C82.679 33.3335 35.9327 87.2322 44.539 147.475L96.8393 513.58C100.222 537.26 111.982 558.943 129.984 574.697L334.15 753.34C371.853 786.33 428.147 786.33 465.85 753.34L670.017 574.697C688.017 558.943 699.777 537.26 703.16 513.58L755.46 147.475C764.067 87.2322 717.32 33.3335 656.467 33.3335H143.534ZM110.535 138.047C107.667 117.966 123.249 100 143.534 100H656.467C676.75 100 692.333 117.966 689.463 138.047L637.163 504.15C636.037 512.043 632.117 519.273 626.117 524.523L421.95 703.167C409.383 714.163 390.617 714.163 378.05 703.167L173.884 524.523C167.883 519.273 163.964 512.043 162.836 504.15L110.535 138.047Z" fill="white"/>
</svg>
