<svg width="800" height="800" viewBox="0 0 800 800" fill="none" xmlns="http://www.w3.org/2000/svg">
<path fill-rule="evenodd" clip-rule="evenodd" d="M668 668H560.8V480.426C560.8 428.97 538.1 400.262 497.391 400.262C453.091 400.262 426.8 430.176 426.8 480.426V668H319.6V319.6H426.8V358.779C426.8 358.779 460.434 299.762 536.224 299.762C612.041 299.762 668 346.028 668 441.757V668ZM197.446 263.88C161.292 263.88 132 234.348 132 197.927C132 161.533 161.292 132 197.446 132C233.572 132 262.864 161.533 262.864 197.927C262.891 234.348 233.572 263.88 197.446 263.88ZM132 668H266V319.6H132V668Z" fill="#87209E"/>
</svg>
