<svg width="800" height="800" viewBox="0 0 800 800" fill="none" xmlns="http://www.w3.org/2000/svg">
<path fill-rule="evenodd" clip-rule="evenodd" d="M545.727 71.6555C588.313 79.4538 631.033 98.6255 651.743 138.073C673.083 178.718 670.847 218.266 653.103 251.562C636.333 283.038 607.123 306.563 577.687 322.367C548.033 338.286 514.61 348.3 485.307 350.26C470.72 351.237 455.383 350.34 441.45 345.843C427.427 341.317 412 332.085 403.447 314.759C395.293 298.252 402.067 278.263 418.573 270.112C434.057 262.467 452.6 267.951 461.57 282.279C461.68 282.317 461.797 282.356 461.923 282.397C465.213 283.459 471.45 284.373 480.857 283.743C499.547 282.492 523.807 275.626 546.15 263.63C568.71 251.519 585.807 236.092 594.27 220.213C601.76 206.155 603.68 189.945 592.717 169.061C586.037 156.334 568.13 143.533 533.72 137.232C500.45 131.14 458.237 132.559 414.9 141.574C371.677 150.565 329.459 166.675 295.992 188.13C262.199 209.795 240.173 234.999 231.71 261.12C222.556 289.376 225.801 309.263 234.044 325.597C243.086 343.513 259.647 360.106 282.483 377.87C293.535 386.47 305.27 394.763 317.638 403.506L318.309 403.983C330.67 412.72 343.717 421.957 355.913 431.587C366.183 439.697 376.677 448.696 386.283 458.823C429.393 450.51 466.743 451.413 497.35 465.413C536.76 483.437 556.517 518.956 565.81 559.16C569.957 577.096 558.777 594.997 540.84 599.143C522.903 603.29 505.003 592.11 500.857 574.173C494.187 545.31 483.287 532.29 469.623 526.04C459.607 521.46 444.647 518.85 422.38 520.873C442.913 593.05 407.063 658.413 363.173 695.44C339.53 715.386 310.584 729.923 281.649 732.81C251.385 735.833 219.052 725.683 200.079 694.09C183.325 666.193 183.192 636.53 191.931 610.116C200.339 584.706 216.946 561.833 235.139 542.9C258.005 519.1 286.766 498.086 314.042 483.47C303.606 475.26 292.186 467.156 279.827 458.42L278.645 457.583C266.655 449.11 253.826 440.043 241.547 430.49C216.511 411.013 190.371 387.026 174.527 355.633C157.885 322.657 154.058 284.499 168.289 240.572C183.213 194.511 218.811 158.42 260.011 132.007C301.538 105.384 351.68 86.6312 401.323 76.3045C450.85 66.0018 502 63.6482 545.727 71.6555ZM357.4 536.333C334.96 546.516 305.774 565.606 283.212 589.086C268.892 603.993 259.377 618.503 255.223 631.06C251.4 642.613 252.264 651.496 257.231 659.766C259.98 664.343 264.192 667.556 275.027 666.473C287.191 665.26 303.895 658.23 320.185 644.487C351.363 618.183 370.24 577.496 357.4 536.333ZM460.403 281.797L460.46 281.829L460.403 281.797Z" fill="white"/>
</svg>
